<svg xmlns="http://www.w3.org/2000/svg" xmlns:xlink="http://www.w3.org/1999/xlink" version="1.1" width="375pt" height="375pt" viewBox="0 0 375 375">
<defs>
<clipPath id="clip_2">
<path transform="matrix(.24,0,0,.24,0,0)" d="M265.625 0H1296.875V1562.5H265.625Z" fill-rule="evenodd"/>
</clipPath>
</defs>
<g clip-path="url(#clip_2)">
<path transform="matrix(7.0224716,0,0,7.0224716,65.66011,-1.4044943)" d="M23.804688 16.214844H32.710939C33.445314 16.214844 34.07422 16.601563 34.402345 17.257813 34.73047 17.914063 34.66797 18.648438 34.23047 19.238282L10.6953129 50.910158C10.5078129 51.160158 10.300781 51.335939 10.019531 51.476564L6.2695314 53.351564C5.7148439 53.628908 5.117188 53.625 4.5625 53.347658L3.054688 52.578126C2.222656 52.15625 1.824219 51.214845 2.105469 50.32422L7.6523439 32.63672H1.996094C1.398438 32.63672 .890625 32.390626 .515625 31.925782 .14453098 31.464844 .015625 30.910157 .14453098 30.332032L6.089844 3.589844C6.21875 3.011719 6.5625 2.570312 7.089844 2.304688L10.84375 .429688C11.125 .289062 11.394531 .226562 11.707031 .226562L30.492188 .38671906C31.203125 .39453105 31.804688 .7578121 32.14453 1.378906 32.48047 2 32.453126 2.707031 32.07422 3.300781L23.804688 16.214844" fill="#ffffff" fill-rule="evenodd"/>
<path transform="matrix(7.0224716,0,0,7.0224716,65.66011,-1.4044943)" d="M12.3828129 2.128906 30.476563 2.28125 20.34375 18.109375H32.710939L9.175781 49.78125 5.421875 51.65625 3.910156 50.890626 10.234375 30.742188H1.996094L7.9375 4 11.691406 2.121094 12.3828129 2.128906" fill-rule="evenodd"/>
<path transform="matrix(7.0224716,0,0,7.0224716,65.66011,-1.4044943)" d="M28.917969 3.125 12.378906 2.984375 6.8164064 28.003907H15.15625L8.484375 49.26953 31 18.96875H18.769532L28.917969 3.125" fill="#db9cfd" fill-rule="evenodd"/>
</g>
</svg>
